<svg fill="#FFFFFF" xmlns="http://www.w3.org/2000/svg"  viewBox="0 0 50 50" width="100px" height="100px"><path d="M25.185 19.606c-1.612 0-2.919 1.307-2.919 2.919v4.981c0 .911-.739 1.65-1.65 1.65h-5.619v1.237h6.683c1.612 0 2.919-1.307 2.919-2.919v-4.981c0-.911.739-1.65 1.65-1.65l5.724 0v-1.237H25.185zM0 19.606v1.237h11.738c.936 0 1.694.758 1.694 1.694 0 .936-.758 1.694-1.694 1.694H2.919C1.307 24.231 0 25.538 0 27.15v3.244h2.333v-3.276c0-.911.739-1.65 1.65-1.65h8.851c1.619 0 2.931-1.312 2.931-2.931 0-1.619-1.312-2.931-2.931-2.931H0zM34.221 19.606v4.028c0 1.012.821 1.833 1.833 1.833h9.768c1.019 0 1.845.826 1.845 1.845 0 1.019-.826 1.845-1.845 1.845H34.221v1.237h12.697c1.702 0 3.082-1.38 3.082-3.082 0-1.702-1.38-3.082-3.082-3.082h-9.628c-.407 0-.737-.33-.737-.737v-2.651h13.023v-1.237H34.221z"/></svg>