<svg fill="#FFFFFF" xmlns="http://www.w3.org/2000/svg"  viewBox="0 0 32 32" width="128px" height="128px"><path d="M 10 3 C 6.989 3 4.3232813 4.9155781 3.3632812 7.7675781 C 3.1872812 8.2905781 3.4681875 8.8581562 3.9921875 9.0351562 C 4.5161875 9.2121562 5.0837656 8.9292969 5.2597656 8.4042969 C 5.9437656 6.3682969 7.85 5 10 5 L 13 5 L 13 27 L 10 27 C 7.243 27 5 24.757 5 22 L 5 11.199219 C 5 10.646219 4.553 10.199219 4 10.199219 C 3.447 10.199219 3 10.646219 3 11.199219 L 3 22 C 3 25.859 6.141 29 10 29 L 14 29 C 14.553 29 15 28.553 15 28 L 15 4 C 15 3.448 14.553 3 14 3 L 10 3 z M 18 3 C 17.447 3 17 3.447 17 4 L 17 28 C 17 28.553 17.447 29 18 29 L 22 29 C 25.859 29 29 25.859 29 22 L 29 10 C 29 6.141 25.859 3 22 3 L 18 3 z M 9 9 A 2 2 0 0 0 9 13 A 2 2 0 0 0 9 9 z M 23 19 C 24.105 19 25 19.895 25 21 C 25 22.104 24.105 23 23 23 C 21.895 23 21 22.104 21 21 C 21 19.895 21.895 19 23 19 z"/></svg>