<?xml version="1.0" standalone="no"?>
<!DOCTYPE svg PUBLIC "-//W3C//DTD SVG 1.1//EN" "http://www.w3.org/Graphics/SVG/1.1/DTD/svg11.dtd">
<svg xmlns="http://www.w3.org/2000/svg" id="Capa_2" data-name="Capa 2" viewBox="0 0 266.91 176" width="266.9100036621094" height="176"><defs><style>.cls-1{fill:#f7f7f8;}</style></defs><title>Sin título-positiu</title><path class="cls-1" d="M292.33,374.65a69.8,69.8,0,0,1-7.71,29.84c-11.7,22.84-28.87,39.95-52.94,49.42-10.91,4.28-22.25,5.23-33.3.25-15.09-6.81-20.78-23.38-14.29-40.8a45.75,45.75,0,0,1,17.39-22.62c16.48-11,24.67-26.83,28.12-45.77,1-5.21,2.56-10.29,4-15.41,6.26-22.73,37.3-37.3,60.19-15.7,10.68,10.08,18.55,22.14,25.53,34.84,7.58,13.8,14.77,27.81,22.31,41.63a50.4,50.4,0,0,0,10.83,14.22c7,6.05,13.9,4.46,17.39-4.09,3.7-9.08,4.68-18.9,7.51-28.25a80.27,80.27,0,0,1,30.53-43c4.6-3.34,9-7,11.82-12,1-1.78,2.71-3.82.93-5.93-1.61-1.89-4-2.2-6.4-1.8a104.34,104.34,0,0,0-39.84,15.85c-15.1,9.86-27.57,22.25-36.47,39.64-1-6.24.19-11,1.62-15.54,10.18-32.36,30.83-54.93,63.3-65.6,11-3.61,22.45-3.2,32.7,3.15,10.77,6.67,15.25,20.71,11.55,34.57-2.94,11.07-9.15,20.24-18.55,26.43-16.66,11-24.71,26.73-28.17,45.67a96.53,96.53,0,0,1-5.88,20.52c-8.21,19.41-35.22,29.83-54.62,12.18-12.79-11.64-21.19-26.26-29.44-41.05-7.25-13-13.58-26.56-21.86-39a51.73,51.73,0,0,0-10.48-12c-7.77-6.24-15.37-4.06-18.57,5.32-3.36,9.86-4.58,20.29-7.94,30.18a79.4,79.4,0,0,1-29.41,39.8c-4.35,3.14-8.52,6.45-11.38,11-1.25,2-3.41,4.27-1.65,6.77,1.59,2.26,4.43,2.11,6.92,1.72a92.27,92.27,0,0,0,26.34-8.44c20.36-10,37.05-24,48.17-44.07A18.77,18.77,0,0,1,292.33,374.65Z" transform="translate(-181.44 -281.53)"/></svg>