<svg width="700" height="700" xmlns="http://www.w3.org/2000/svg">
 <g>
  <title>Layer 1</title>
  <g stroke="null" id="svg_15">
   <path stroke="null" class="cls-1" d="m585.93809,381.89389c-0.68239,-89.76014 -103.30995,-162.02261 -229.23383,-160.87807c-125.90801,1.14455 -227.40884,75.26256 -226.72646,165.02271c0.01587,2.32378 0.03174,8.74017 0.04761,9.53788c0.72999,95.22275 90.51919,171.54315 229.29731,170.27721c139.61919,-1.26594 227.40884,-79.19911 226.67885,-174.4392l-0.07935,-9.55522l0.01587,0.03468zm-226.77407,155.24204c-121.06783,1.10986 -219.72804,-66.6091 -220.37869,-151.23613c-0.03174,-3.4163 0.15869,-6.78057 0.46021,-10.14484l1.39651,-10.35294c0.2063,-1.10986 0.53956,-2.18504 0.7776,-3.2949c4.983,1.57809 8.60123,2.67061 10.34686,3.10415c55.70168,13.87328 77.83952,28.3015 84.40947,33.45196c4.30061,-4.19667 9.95013,-6.57247 15.66312,-6.57247l0.01587,0c6.68103,0 12.94945,3.12149 17.40876,8.56675c6.99842,-4.92502 15.5203,-5.96551 24.15326,-2.68795c5.64951,2.11568 10.10882,6.05222 12.96532,11.42812c5.7606,-2.01163 12.28293,-1.5434 18.80527,1.52606c12.55271,5.89615 14.3777,18.5902 14.12379,26.6367c14.91726,0.34683 26.94628,13.71721 26.93041,30.08768c0,3.90186 -0.71412,7.82106 -2.07889,11.39343c4.14192,2.27175 11.20381,5.44526 17.45637,4.61287c5.93516,-0.81506 7.71254,-2.89605 8.12515,-3.52035c0.04761,-0.05202 0.07935,-0.12139 0.11109,-0.17342l-16.80572,-20.28968c-2.93584,-3.01744 -3.68171,-6.10424 -1.9202,-8.21992c0.72999,-0.90176 1.76151,-1.40467 2.88824,-1.40467c1.95194,0 3.61823,1.5434 4.84017,2.67061c9.10905,8.30663 20.02721,20.61917 20.1383,20.74056l0.26978,0.32949c0.23804,0.31215 0.9363,0.93645 3.25323,1.38733c0.7776,0.15607 1.63455,0.24278 2.52324,0.24278c1.69803,0 5.99864,-0.31215 9.14079,-3.12149c0.5713,-0.53759 1.19021,-1.17923 1.77738,-1.85555l0.65065,-0.91911c2.8565,-3.98857 0.14282,-8.0465 -0.42847,-8.82688l-20.45569,-25.14533s-0.80934,-0.8324 -1.49173,-1.85555c-2.22172,-3.24288 -1.22195,-5.3759 -0.42847,-6.36437c0.76173,-0.88442 1.76151,-1.3353 2.80889,-1.3353c1.82498,0 3.52301,1.31796 5.07822,2.73997c5.47495,5.01172 12.91771,13.0062 20.10656,20.74056l4.52279,4.89033c0.55543,0.39886 3.2691,2.21973 7.04602,2.23707c3.01519,0 6.10973,-1.1272 9.1884,-3.34693c4.26888,-3.03478 6.25255,-6.76323 6.06212,-11.35875c-0.31739,-4.02325 -3.38019,-7.23145 -3.41193,-7.26613l-28.13649,-30.93742c-2.9041,-2.70529 -3.76105,-5.98285 -2.09476,-8.23726c0.71412,-0.97113 1.90433,-1.47404 2.95171,-1.50872c1.82498,0 3.4278,1.31796 5.03061,2.792c4.99887,4.57818 15.63138,14.98315 31.59602,30.90274c0.92043,0.91911 1.49173,1.47404 1.57107,1.56074c0,0 2.91997,2.20238 7.22059,2.21973c2.84063,0 5.69712,-0.97113 8.47427,-2.89605c3.04693,-2.11568 4.80844,-5.1678 4.96713,-8.56675c0.28565,-6.19095 -3.68171,-10.02345 -3.71345,-10.05813c-7.50624,-7.17942 -71.71393,-68.55136 -86.64705,-80.82922c-8.63297,-7.11006 -13.42553,-8.96561 -18.37679,-9.65927c-0.52369,-0.08671 -1.07912,-0.08671 -1.66629,-0.10405c-1.98368,0 -4.53866,0.38152 -6.63342,0.98847c-7.61732,2.27175 -17.61506,10.04079 -24.67695,16.16238c-9.1884,7.9598 -17.78962,15.43403 -26.18455,17.48034c-2.63432,0.64164 -5.52256,1.0405 -8.50601,0.97113c-7.91884,-0.01734 -16.47246,-2.41048 -21.2809,-5.96551c-2.68193,-1.97694 -4.618,-4.3354 -5.58604,-6.83259c-2.4915,-6.34703 1.23782,-11.44546 2.95171,-13.35304l19.31309,-22.78687c0.14282,-0.15607 0.26978,-0.29481 0.39674,-0.43354c-2.77715,0.72835 -5.50669,1.5434 -8.42666,2.44517c-7.01429,2.13302 -14.10792,4.30072 -21.31264,4.30072l-0.03174,0c-2.41215,0 -4.79257,-0.22544 -7.1095,-0.4162l-2.31694,-0.19076c-10.12469,-0.71101 -42.30788,-9.64193 -70.68241,-22.11055c0.03174,-0.03468 0.06348,-0.06937 0.09522,-0.08671l7.8395,-6.57247c39.87986,-31.52704 97.86674,-51.66064 162.56638,-52.25025c66.82614,-0.60696 126.7967,19.76943 167.24786,52.37165l7.77602,6.60715c0.52369,0.46822 0.9839,0.97113 1.49173,1.43935l-2.53911,1.28328c-22.4235,11.20268 -43.35527,16.66528 -64.00139,16.66528l-0.09522,0c-19.83678,-0.03468 -39.57834,-5.23716 -58.65339,-15.43403c-2.17411,-1.10986 -21.97915,-10.87319 -41.97463,-10.90787c-0.50782,0 -1.04738,0 -1.5552,0.03468c-31.8658,0.76303 -45.75155,15.91959 -60.4625,31.94324l-19.01157,22.37067c-0.38087,0.53759 -0.55543,0.86708 -0.61891,1.05784c2.18998,2.70529 7.90297,4.59553 14.09205,4.61287c2.65019,0 5.30039,-0.32949 7.8871,-0.95379c5.80821,-1.40467 13.75879,-8.30663 21.45546,-14.9658l0.53956,-0.46822c8.53775,-7.40487 17.36115,-15.05251 26.37498,-18.15666c3.96736,-1.38733 7.79189,-2.08099 11.37838,-2.08099l0.04761,0c3.87214,0 6.88733,0.81506 9.06144,1.5434c4.76083,1.5434 10.1723,4.97704 18.07527,11.49748c12.91771,10.59572 58.17731,53.56822 84.48881,78.71354c14.64748,-7.05803 51.76606,-23.72331 97.43826,-34.76992c0,0 0,-0.06937 0.03174,-0.19076c0.06348,0.36417 0.17456,0.71101 0.23804,1.09252l1.3489,10.31825c0.19043,2.53187 0.31739,5.08109 0.33326,7.64765c0.65065,84.62703 -96.96218,154.13218 -218.04588,155.24204l0.01587,-0.03468z" fill="#fff" stroke-width="0px" id="svg_16"/>
   <path stroke="null" class="cls-1" d="m338.99399,448.69375l0,0c-2.50737,0 -5.20517,1.00581 -6.98255,1.68214c-1.22195,0.45088 -1.95194,0.74569 -2.53911,0.74569l-0.38087,0l-0.52369,-0.27747c-0.38087,-0.27747 -0.5713,-0.67632 -0.66652,-1.14455c-0.52369,-0.8324 -0.365,-2.13302 0.55543,-4.59553c0.04761,-0.12139 2.82476,-8.63612 0.42847,-15.98896c-1.17434,-3.2082 -3.36432,-6.13893 -7.29993,-7.99448c-2.66606,-1.26594 -5.25278,-1.87289 -7.66493,-1.89023c-5.30039,0 -8.69644,2.94807 -10.23578,4.73426c-0.38087,0.43354 -0.90456,0.91911 -1.60281,0.91911c-0.22217,0 -1.1426,-0.13873 -1.5076,-1.36999c-0.19043,-0.29481 -0.33326,-0.69366 -0.38087,-1.26594c-0.07935,-1.23125 -0.31739,-3.08681 -0.96803,-5.08109c-1.22195,-3.38161 -3.68171,-7.04069 -8.68057,-8.72283c-2.04716,-0.69366 -4.07844,-1.0405 -6.04625,-1.0405c-10.34686,0 -15.96464,9.31244 -16.18681,9.7113l-2.04716,3.48566l-0.07935,-0.64164s-0.09522,0.06937 -0.11109,0.06937c-0.42847,-0.12139 -0.49195,-4.09262 -0.49195,-4.09262c-0.09522,-0.88442 -0.28565,-1.7515 -0.52369,-2.5839c-1.9202,-5.96551 -7.07776,-10.16218 -13.01293,-10.16218c-7.66493,0 -13.91748,6.81525 -13.93335,15.24327c0,1.90758 0.365,3.72844 0.95217,5.41058c2.1265,5.41058 7.04602,9.19105 12.75902,9.20839c3.58649,0 6.41125,-2.39314 9.61687,-4.24869c0.87282,-0.50291 1.77738,-0.57227 2.04716,-0.15607c0.25391,0.38152 0.33326,0.81506 0.365,1.28328c0.17456,0.38152 0.26978,0.81506 0.2063,1.35265c-0.31739,2.08099 -0.74586,6.57247 0.5713,11.27204c1.41238,4.49148 4.49105,9.06966 10.90229,11.79229c1.61868,0.69366 3.23736,1.02315 4.8243,1.0405c2.87237,0 5.69712,-1.07518 8.64884,-3.34693c0.71412,-0.55493 1.25368,-0.81506 1.76151,-0.78037c0.34913,0.03468 0.88869,0.15607 1.25368,0.60696c0.28565,0.34683 0.39674,0.76303 0.42847,1.17923c0.22217,0.57227 0.25391,1.19657 0.15869,1.82087c-0.15869,1.16189 -0.22217,2.94807 0.26978,4.97704c0.9839,3.24288 3.44366,6.93664 9.3947,9.57257c2.04716,0.91911 3.98323,1.36999 5.77647,1.36999c3.93562,0 6.63342,-2.1677 8.75992,-4.31806c0.74586,-0.74569 1.41238,-1.2486 2.15824,-1.2486c1.11086,0 1.5552,0.88442 1.76151,1.76884c0.34913,0.76303 0.41261,1.69948 0.42847,2.20238c0.07935,2.39314 0.60304,4.63021 1.39651,6.7112c2.82476,6.64183 8.99796,11.22002 16.18681,11.23736c9.85491,0 17.88484,-8.74017 17.90071,-19.49196c0,-2.53187 -0.47608,-4.94236 -1.30129,-7.16208c-2.77715,-6.84993 -9.04557,-11.68824 -16.34551,-11.79229z" fill="#fff" stroke-width="0px" id="svg_17"/>
  </g>
 </g>

</svg>